ply
format ascii 1.0
comment -------------------------------------------------------
comment This data format is a varient of the ply format for use
comment combining 3D and spectrometer data.
comment -------------------------------------------------------
comment Developed by i3D Robotics and is-instruments (C)2020
comment -------------------------------------------------------
comment Care has been taken to make sure the 3D data is still viewable
comment in standard ply readers however using custom properties and elements
comment may cause issues so it is advised to use i3DR's ply tools.
comment See [INSERT GITHUB LINK] for tools to read and write this data format
comment -------------------------------------------------------
comment Define in vertex element 3D point cloud data.
comment Also included is label_index, a scalar that can be used
comment to identify different types of points.
comment A label_index of 0 will refer to an un-lablled point.
comment Label_index can be used as a Scalar field to quickly see
comment the labelled groups in a point cloud.
element vertex 8
property float x
property float y
property float z
property uchar red
property uchar green
property uchar blue
comment -------------------------------------------------------
comment Define in spectrum the spectrometer data.
element spectrum 1
property float x
property float y
property float z
property list uchar int label_indices
property list uchar float similarity
property list int float wavenumber
property list int float intensity
comment -------------------------------------------------------
comment Define in label the labels used in this dataset.
comment Text is in ascii integer.
element label 5
property list uchar int label_text
comment -------------------------------------------------------
end_header
0 0 0 255 0 0
0 0 1 255 0 0
0 1 1 255 0 0
0 1 0 255 0 0
1 0 0 0 0 255
1 0 1 0 0 255
1 1 1 0 0 255
1 1 0 0 0 255
0 0 0 5 0 1 2 3 4 5 1.0 0.97 0.94 0.93 0.92 1000 6.48 9.009 11.538 14.067 16.596 19.125 21.655 24.184 26.713 29.242 31.771 34.3 36.83 39.359 41.888 44.417 46.946 49.476 52.005 54.534 57.063 59.592 62.121 64.651 67.18 69.709 72.238 74.767 77.296 79.826 82.355 84.884 87.413 89.942 92.471 95.001 97.53 100.059 102.588 105.117 107.646 110.176 112.705 115.234 117.763 120.292 122.821 125.351 127.88 130.409 132.938 135.467 137.997 140.526 143.055 145.584 148.113 150.642 153.172 155.701 158.23 160.759 163.288 165.817 168.347 170.876 173.405 175.934 178.463 180.992 183.522 186.051 188.58 191.109 193.638 196.167 198.697 201.226 203.755 206.284 208.813 211.343 213.872 216.401 218.93 221.459 223.988 226.518 229.047 231.576 234.105 236.634 239.163 241.693 244.222 246.751 249.28 251.809 254.338 256.868 259.397 261.926 264.455 266.984 269.513 272.043 274.572 277.101 279.63 282.159 284.689 287.218 289.747 292.276 294.805 297.334 299.864 302.393 304.922 307.451 309.98 312.509 315.039 317.568 320.097 322.626 325.155 327.684 330.214 332.743 335.272 337.801 340.33 342.859 345.389 347.918 350.447 352.976 355.505 358.035 360.564 363.093 365.622 368.151 370.68 373.21 375.739 378.268 380.797 383.326 385.855 388.385 390.914 393.443 395.972 398.501 401.03 403.56 406.089 408.618 411.147 413.676 416.205 418.735 421.264 423.793 426.322 428.851 431.38 433.91 436.439 438.968 441.497 444.026 446.556 449.085 451.614 454.143 456.672 459.201 461.731 464.26 466.789 469.318 471.847 474.376 476.906 479.435 481.964 484.493 487.022 489.551 492.081 494.61 497.139 499.668 502.197 504.726 507.256 509.785 512.314 514.843 517.372 519.902 522.431 524.96 527.489 530.018 532.547 535.077 537.606 540.135 542.664 545.193 547.722 550.252 552.781 555.31 557.839 560.368 562.897 565.427 567.956 570.485 573.014 575.543 578.072 580.602 583.131 585.66 588.189 590.718 593.248 595.777 598.306 600.835 603.364 605.893 608.423 610.952 613.481 616.01 618.539 621.068 623.598 626.127 628.656 631.185 633.714 636.243 638.773 641.302 643.831 646.36 648.889 651.418 653.948 656.477 659.006 661.535 664.064 666.594 669.123 671.652 674.181 676.71 679.239 681.769 684.298 686.827 689.356 691.885 694.414 696.944 699.473 702.002 704.531 707.06 709.589 712.119 714.648 717.177 719.706 722.235 724.764 727.294 729.823 732.352 734.881 737.41 739.94 742.469 744.998 747.527 750.056 752.585 755.115 757.644 760.173 762.702 765.231 767.76 770.29 772.819 775.348 777.877 780.406 782.935 785.465 787.994 790.523 793.052 795.581 798.11 800.64 803.169 805.698 808.227 810.756 813.285 815.815 818.344 820.873 823.402 825.931 828.461 830.99 833.519 836.048 838.577 841.106 843.636 846.165 848.694 851.223 853.752 856.281 858.811 861.34 863.869 866.398 868.927 871.456 873.986 876.515 879.044 881.573 884.102 886.631 889.161 891.69 894.219 896.748 899.277 901.807 904.336 906.865 909.394 911.923 914.452 916.982 919.511 922.04 924.569 927.098 929.627 932.157 934.686 937.215 939.744 942.273 944.802 947.332 949.861 952.39 954.919 957.448 959.977 962.507 965.036 967.565 970.094 972.623 975.153 977.682 980.211 982.74 985.269 987.798 990.328 992.857 995.386 997.915 1000.444 1002.973 1005.503 1008.032 1010.561 1013.09 1015.619 1018.148 1020.678 1023.207 1025.736 1028.265 1030.794 1033.323 1035.853 1038.382 1040.911 1043.44 1045.969 1048.499 1051.028 1053.557 1056.086 1058.615 1061.144 1063.674 1066.203 1068.732 1071.261 1073.79 1076.319 1078.849 1081.378 1083.907 1086.436 1088.965 1091.494 1094.024 1096.553 1099.082 1101.611 1104.14 1106.669 1109.199 1111.728 1114.257 1116.786 1119.315 1121.845 1124.374 1126.903 1129.432 1131.961 1134.49 1137.02 1139.549 1142.078 1144.607 1147.136 1149.665 1152.195 1154.724 1157.253 1159.782 1162.311 1164.84 1167.37 1169.899 1172.428 1174.957 1177.486 1180.015 1182.545 1185.074 1187.603 1190.132 1192.661 1195.19 1197.72 1200.249 1202.778 1205.307 1207.836 1210.366 1212.895 1215.424 1217.953 1220.482 1223.011 1225.541 1228.07 1230.599 1233.128 1235.657 1238.186 1240.716 1243.245 1245.774 1248.303 1250.832 1253.361 1255.891 1258.42 1260.949 1263.478 1266.007 1268.536 1271.066 1273.595 1276.124 1278.653 1281.182 1283.712 1286.241 1288.77 1291.299 1293.828 1296.357 1298.887 1301.416 1303.945 1306.474 1309.003 1311.532 1314.062 1316.591 1319.12 1321.649 1324.178 1326.707 1329.237 1331.766 1334.295 1336.824 1339.353 1341.882 1344.412 1346.941 1349.47 1351.999 1354.528 1357.058 1359.587 1362.116 1364.645 1367.174 1369.703 1372.233 1374.762 1377.291 1379.82 1382.349 1384.878 1387.408 1389.937 1392.466 1394.995 1397.524 1400.053 1402.583 1405.112 1407.641 1410.17 1412.699 1415.228 1417.758 1420.287 1422.816 1425.345 1427.874 1430.404 1432.933 1435.462 1437.991 1440.52 1443.049 1445.579 1448.108 1450.637 1453.166 1455.695 1458.224 1460.754 1463.283 1465.812 1468.341 1470.87 1473.399 1475.929 1478.458 1480.987 1483.516 1486.045 1488.574 1491.104 1493.633 1496.162 1498.691 1501.22 1503.749 1506.279 1508.808 1511.337 1513.866 1516.395 1518.925 1521.454 1523.983 1526.512 1529.041 1531.57 1534.1 1536.629 1539.158 1541.687 1544.216 1546.745 1549.275 1551.804 1554.333 1556.862 1559.391 1561.92 1564.45 1566.979 1569.508 1572.037 1574.566 1577.095 1579.625 1582.154 1584.683 1587.212 1589.741 1592.271 1594.8 1597.329 1599.858 1602.387 1604.916 1607.446 1609.975 1612.504 1615.033 1617.562 1620.091 1622.621 1625.15 1627.679 1630.208 1632.737 1635.266 1637.796 1640.325 1642.854 1645.383 1647.912 1650.441 1652.971 1655.5 1658.029 1660.558 1663.087 1665.617 1668.146 1670.675 1673.204 1675.733 1678.262 1680.792 1683.321 1685.85 1688.379 1690.908 1693.437 1695.967 1698.496 1701.025 1703.554 1706.083 1708.612 1711.142 1713.671 1716.2 1718.729 1721.258 1723.787 1726.317 1728.846 1731.375 1733.904 1736.433 1738.963 1741.492 1744.021 1746.55 1749.079 1751.608 1754.138 1756.667 1759.196 1761.725 1764.254 1766.783 1769.313 1771.842 1774.371 1776.9 1779.429 1781.958 1784.488 1787.017 1789.546 1792.075 1794.604 1797.133 1799.663 1802.192 1804.721 1807.25 1809.779 1812.309 1814.838 1817.367 1819.896 1822.425 1824.954 1827.484 1830.013 1832.542 1835.071 1837.6 1840.129 1842.659 1845.188 1847.717 1850.246 1852.775 1855.304 1857.834 1860.363 1862.892 1865.421 1867.95 1870.479 1873.009 1875.538 1878.067 1880.596 1883.125 1885.654 1888.184 1890.713 1893.242 1895.771 1898.3 1900.83 1903.359 1905.888 1908.417 1910.946 1913.475 1916.005 1918.534 1921.063 1923.592 1926.121 1928.65 1931.18 1933.709 1936.238 1938.767 1941.296 1943.825 1946.355 1948.884 1951.413 1953.942 1956.471 1959 1961.53 1964.059 1966.588 1969.117 1971.646 1974.176 1976.705 1979.234 1981.763 1984.292 1986.821 1989.351 1991.88 1994.409 1996.938 1999.467 2001.996 2004.526 2007.055 2009.584 2012.113 2014.642 2017.171 2019.701 2022.23 2024.759 2027.288 2029.817 2032.346 2034.876 2037.405 2039.934 2042.463 2044.992 2047.522 2050.051 2052.58 2055.109 2057.638 2060.167 2062.697 2065.226 2067.755 2070.284 2072.813 2075.342 2077.872 2080.401 2082.93 2085.459 2087.988 2090.517 2093.047 2095.576 2098.105 2100.634 2103.163 2105.692 2108.222 2110.751 2113.28 2115.809 2118.338 2120.868 2123.397 2125.926 2128.455 2130.984 2133.513 2136.043 2138.572 2141.101 2143.63 2146.159 2148.688 2151.218 2153.747 2156.276 2158.805 2161.334 2163.863 2166.393 2168.922 2171.451 2173.98 2176.509 2179.038 2181.568 2184.097 2186.626 2189.155 2191.684 2194.213 2196.743 2199.272 2201.801 2204.33 2206.859 2209.389 2211.918 2214.447 2216.976 2219.505 2222.034 2224.564 2227.093 2229.622 2232.151 2234.68 2237.209 2239.739 2242.268 2244.797 2247.326 2249.855 2252.384 2254.914 2257.443 2259.972 2262.501 2265.03 2267.559 2270.089 2272.618 2275.147 2277.676 2280.205 2282.735 2285.264 2287.793 2290.322 2292.851 2295.38 2297.91 2300.439 2302.968 2305.497 2308.026 2310.555 2313.085 2315.614 2318.143 2320.672 2323.201 2325.73 2328.26 2330.789 2333.318 2335.847 2338.376 2340.905 2343.435 2345.964 2348.493 2351.022 2353.551 2356.081 2358.61 2361.139 2363.668 2366.197 2368.726 2371.256 2373.785 2376.314 2378.843 2381.372 2383.901 2386.431 2388.96 2391.489 2394.018 2396.547 2399.076 2401.606 2404.135 2406.664 2409.193 2411.722 2414.251 2416.781 2419.31 2421.839 2424.368 2426.897 2429.427 2431.956 2434.485 2437.014 2439.543 2442.072 2444.602 2447.131 2449.66 2452.189 2454.718 2457.247 2459.777 2462.306 2464.835 2467.364 2469.893 2472.422 2474.952 2477.481 2480.01 2482.539 2485.068 2487.597 2490.127 2492.656 2495.185 2497.714 2500.243 2502.773 2505.302 2507.831 2510.36 2512.889 2515.418 2517.948 2520.477 2523.006 2525.535 2528.064 2530.593 2533.123 1000 19528.896 8692.861 2036.987 496.807 374.211 115.476 68.481 51.241 42.812 43.377 40.283 31.715 26.356 22.226 27.03 27.512 18.969 15.778 19.205 18.566 15.386 15.303 15.382 14.336 12.925 12.937 12.32 11.609 11.216 11.398 11.179 10.196 10.042 9.73 9.237 9.395 8.668 8.641 8.536 8.361 8.081 8.112 7.589 7.458 7.524 7.236 6.973 7.067 6.772 6.788 6.218 6.536 6.384 6.09 6.044 6.286 5.81 6.002 6.013 5.211 5.532 5.39 5.586 5.3 5.384 5.194 4.905 5.167 5.109 5.129 5.319 4.98 4.888 5.171 5.026 4.9 4.958 4.67 4.819 4.755 4.691 3.998 3.946 4.434 4.345 4.046 4.42 4.082 4.118 3.996 4.278 3.996 3.991 3.729 3.601 3.694 3.523 3.838 3.696 3.913 3.425 3.488 3.44 3.391 3.489 3.319 3.323 3.464 3.326 3.159 3.356 3.301 3.253 2.951 3.862 4.102 6.244 9.239 12.578 16.537 20.218 23.261 25.577 27.345 28.33 28.477 27.995 28.069 28.499 28.854 28.701 28.49 27.922 27.591 27.778 28.002 28.116 28.101 27.954 27.871 27.837 27.939 27.797 27.746 27.88 27.785 27.655 27.498 27.389 27.643 27.622 27.483 27.425 27.537 27.929 29.045 30.146 30.915 31.597 32.11 32.204 32.151 32.231 32.478 32.874 33.331 33.735 34.479 35.198 35.994 36.57 36.918 37.315 37.818 38.451 38.95 39.361 39.824 40.139 40.822 41.415 41.628 41.541 40.884 39.751 38.566 37.001 35.014 32.999 31.26 29.875 28.806 27.896 27.589 27.612 27.706 27.482 27.208 27.098 27.074 27.139 27.546 27.941 28.06 27.845 27.392 27.003 26.727 26.168 25.847 25.674 25.315 24.897 24.633 24.638 24.736 24.523 24.416 24.57 24.765 24.897 24.855 24.847 25.007 25.176 25.649 26.176 26.75 27.281 27.924 28.805 29.464 29.979 30.402 30.806 31.183 31.555 32.358 32.615 32.042 31.296 30.351 29.169 28.371 27.854 27.367 26.454 25.565 24.722 23.854 23.021 22.262 21.904 21.82 21.791 21.736 21.847 22.017 21.84 21.473 21.163 21.122 21.26 21.247 21.076 20.926 20.79 20.702 20.622 20.707 21.025 21.264 21.29 21.319 20.78 20.054 19.837 19.741 19.677 19.632 19.619 19.854 19.979 20.037 20.044 20 20.182 20.489 20.617 20.39 20.352 20.411 20.342 20.333 20.373 20.386 20.224 19.812 19.429 19.395 19.363 19.21 18.979 18.858 18.853 18.723 18.558 18.503 18.367 18.045 17.525 17.195 17.206 17.252 17.318 17.533 17.836 17.938 18.111 18.221 18.158 18.002 17.742 17.766 17.956 17.813 17.596 17.472 17.061 16.813 17.069 17.507 17.781 17.705 17.545 17.502 17.42 17.574 18.035 18.218 17.951 17.591 17.476 17.459 16.995 16.475 16.541 16.702 16.477 16.166 16.474 17.005 17.042 17.018 17.073 16.712 16.244 16.42 16.941 17.28 17.779 18.386 18.549 18.099 17.664 17.623 17.855 18.229 18.674 18.846 19.008 19.359 19.451 19.367 19.425 19.929 21.086 22.767 24.39 25.424 26.432 28.07 31.785 38.694 48.506 60.529 72.343 80.842 84.126 81.415 73.192 61.555 49.626 38.876 29.927 23.278 19.029 16.625 15.512 15.192 15.349 15.592 15.684 15.593 15.65 15.653 15.289 15.125 15.154 15.252 15.425 15.549 15.615 15.772 16.206 16.582 16.904 17.233 17.595 17.904 18.061 18.196 18.159 18.045 18.142 18.31 18.183 17.857 17.727 17.455 17.168 17.022 16.978 16.775 16.654 16.827 16.919 16.719 16.817 17.318 17.706 17.81 17.734 17.206 16.45 15.771 15.212 14.87 14.751 14.387 13.99 13.844 13.721 13.548 13.53 13.582 13.532 13.516 13.42 13.013 12.568 12.25 12.341 12.612 12.639 12.575 12.61 12.695 12.367 11.98 12.046 11.982 11.669 11.685 12.104 12.285 12.334 12.322 12.175 12.166 12.293 12.389 12.304 12.018 11.858 11.658 11.073 10.666 10.81 10.872 10.62 10.334 10.442 10.674 10.88 11.176 11.234 10.907 10.474 9.909 9.148 8.359 8.269 8.831 9.892 10.735 11.075 11.54 11.721 11.745 11.815 11.594 11.495 11.365 11.117 10.987 10.918 10.795 10.89 10.929 10.872 10.846 10.766 10.698 10.817 11.141 11.555 11.837 11.865 11.755 11.754 11.645 11.302 11.088 11.096 10.95 10.768 10.652 10.367 10.198 10.488 10.704 10.585 10.381 10.342 10.366 9.987 9.519 9.351 9.204 9.217 9.598 9.886 9.837 10.03 10.058 9.815 9.897 9.95 9.716 9.632 9.587 9.503 9.345 8.879 8.556 8.718 8.887 8.989 8.987 8.956 8.907 8.835 8.885 9.092 9.139 9.083 8.83 8.617 8.669 8.707 8.823 8.956 9.014 9.016 8.836 8.922 8.986 8.79 9.031 9.416 9.011 8.4 8.237 8.551 8.831 8.787 8.691 8.458 8.333 8.347 8.348 8.148 8.185 8.762 9.136 9.285 9.244 8.72 8.048 7.942 8.151 8.159 8.215 8.361 8.328 7.932 7.574 7.614 8.05 8.752 8.742 8.216 8.137 8.484 8.532 8.309 7.985 7.811 7.843 7.921 7.968 7.886 7.898 7.949 7.871 7.796 7.849 7.792 7.758 7.523 7.111 6.986 7.015 7.122 7.489 7.787 7.739 7.742 7.584 7.237 6.759 6.494 6.791 7.066 7.173 7.226 7.275 7.412 7.15 6.714 6.668 6.689 6.863 7.064 7.046 7.083 7.032 6.745 6.571 6.731 6.747 6.498 6.549 6.753 6.809 6.809 6.879 6.603 6.167 6.098 6.095 6.032 5.983 5.953 6.131 6.282 6.089 5.879 5.858 5.87 5.641 5.32 5.341 5.441 5.448 5.584 5.692 5.63 5.595 5.75 5.809 5.75 5.808 5.761 5.585 5.512 5.685 5.609 5.433 5.4 5.406 5.498 5.396 5.126 4.997 5.14 5.15 4.997 5.137 5.328 5.301 5.298 5.182 4.792 4.653 4.871 5.289 5.527 5.371 5.016 4.714 4.497 4.251 4.113 4.258 4.545 4.657 4.573 4.554 4.408 4.121 4.127 4.407 4.635 4.671 4.526 4.548 4.59 4.474 4.413 4.557 4.601 4.378 4.331 4.655 4.612 4.385 4.507 4.446 4.34 4.536 4.418 4.081 4.165 4.348 4.066 3.912 4.064 4.138 4.046 3.894 3.772 3.949 4.197 4.244 4.464 4.549 4.339 4.069 3.722 3.557 3.769 4.015 3.963 3.933 4.023 4.17 3.787 3.603 3.905 4.02 3.896 3.604 3.482 3.661 3.816 3.656 3.721 3.699 3.53 3.782 3.874 3.74 3.593 3.438 3.441 3.517 3.61 3.691 3.612 3.579 3.579 3.554 3.436 3.358 3.413 3.482 3.468 3.457 3.284 3.217 3.427 3.78 3.81 3.575 3.272 3.053 3.084 3.11 3.091 3.078 3.105 3.101 3.001 3.101 3.228 3.202 3.026 2.899 2.984 3.152 3.1 3.006 3.188 3.342 3.329 3.231 3.121 2.919 2.842 2.96 3.069 3.075 3.03 2.98 2.969 3.072 3.09 3.194 3.174 2.83 2.488 2.395 2.558 2.779 2.682 2.573 2.681 2.784 2.654 2.546 2.464 2.485 2.506 2.436 2.385 2.437 2.722 2.879 2.773 2.728 2.833 2.862 2.794 2.685 2.528 2.423 2.407 2.494 2.61 2.748 2.477 2.281 2.4 2.436 2.492 2.657 2.7 2.664 2.637 2.539 2.592 2.777 2.714 2.638 2.673 2.579 2.562 2.481 2.378 2.233 2.325 2.829 2.883 2.47 2.261 2.333 2.424 2.525 2.52 2.311 2.305 2.422 2.484 2.46 2.303 2.119 2.113 2.305 2.31 2.211 2.233 2.306 2.289 2.12 2.134 2.223 2.296 2.34 2.229 2.181 2.062 1.957 1.931 1.914 2.112 2.272 2.303 2.416 2.523 2.46 2.33 2.299 2.309 2.275 2.248 2.387 2.492 2.503 2.449 2.504 2.497 2.284 2.12 2.055 2.184 2.401 2.475 2.487 2.513 2.59 2.443 2.123 2.11 2.158 2.238 2.237 2.165 2.236 2.234 2.04 1.967 2.358 2.618 2.496 2.282 2.219 2.247 2.218 2.143 2.054 2.068 1.93 1.983 2.059 1.978 1.81 1.985 2.136
18 65 108 117 109 105 110 105 117 109 95 83 117 108 112 104 97 116 101
27 65 108 117 109 105 110 105 117 109 95 65 109 109 111 110 105 117 109 95 83 117 108 112 104 97 116 101
18 80 111 116 97 115 115 105 117 109 95 83 117 108 112 104 97 116 101
27 65 109 109 111 110 105 117 109 95 73 114 111 110 95 40 73 73 41 95 83 117 108 112 104 97 116 101
18 73 114 111 110 95 40 73 73 41 95 83 117 108 112 104 97 116 101