ply
format ascii 1.0
element vertex 8
comment -------------------------------------------------------
comment Define in wave the spectrometer data.
comment MUST be the same size as the 3D data.
comment If the point does not have spectrometer data then it should
comment be set to 0 0
property float x
property float y
property float z
property uchar red
property uchar green
property uchar blue
property uchar label_index
element wave 8
comment -------------------------------------------------------
comment Define in label the labells used in this dataset.
comment Text is in ascii integer.
comment Label_index 0 should be 0 0 to represent non labelled data
property list uchar float wavenumber
property list uchar float intensity
element label 2
comment -------------------------------------------------------
property uchar label_index
property list uchar int label_text
end_header
0 0 0 255 0 0 0
0 0 1 255 0 0 1
0 1 1 255 0 0 1
0 1 0 255 0 0 0
1 0 0 0 0 255 0
1 0 1 0 0 255 1
1 1 1 0 0 255 1
1 1 0 0 0 255 0
0 0
2 18.6347141265869141 21.1585674285888672 3 198062016 48374300 1468067.75
2 18.6347141265869141 21.1585674285888672 3 198062016 48374300 1468067.75
2 18.6347141265869141 21.1585674285888672 3 198062016 48374300 1468067.75
2 18.6347141265869141 21.1585674285888672 3 198062016 48374300 1468067.75
2 18.6347141265869141 21.1585674285888672 3 198062016 48374300 1468067.75
2 18.6347141265869141 21.1585674285888672 3 198062016 48374300 1468067.75
2 18.6347141265869141 21.1585674285888672 3 198062016 48374300 1468067.75
0 0
1 17 80 111 116 97 115 115 105 117 109 95 66 114 111 109 105 100 101
